<svg width="512" height="512" viewBox="0 0 512 512" fill="none" xmlns="http://www.w3.org/2000/svg" role="img" aria-label="Reliable Shop Systems">
  <defs>
    <linearGradient id="rss-bg" x1="0" y1="0" x2="512" y2="512" gradientUnits="userSpaceOnUse">
      <stop offset="0" stop-color="#1C4E80"/>
      <stop offset="1" stop-color="#0F2A4A"/>
    </linearGradient>
  </defs>
  <rect width="512" height="512" rx="112" fill="url(#rss-bg)"/>
  <g transform="translate(96 96) scale(5)">
    <g fill="#FFFFFF">
      <circle cx="32" cy="32" r="21"/>
      <rect x="27.5" y="2.5" width="9" height="13" rx="2.5"/>
      <rect x="27.5" y="2.5" width="9" height="13" rx="2.5" transform="rotate(45 32 32)"/>
      <rect x="27.5" y="2.5" width="9" height="13" rx="2.5" transform="rotate(90 32 32)"/>
      <rect x="27.5" y="2.5" width="9" height="13" rx="2.5" transform="rotate(135 32 32)"/>
      <rect x="27.5" y="2.5" width="9" height="13" rx="2.5" transform="rotate(180 32 32)"/>
      <rect x="27.5" y="2.5" width="9" height="13" rx="2.5" transform="rotate(225 32 32)"/>
      <rect x="27.5" y="2.5" width="9" height="13" rx="2.5" transform="rotate(270 32 32)"/>
      <rect x="27.5" y="2.5" width="9" height="13" rx="2.5" transform="rotate(315 32 32)"/>
    </g>
    <g fill="#DD4B12">
      <rect x="24" y="5" width="16" height="8" rx="3"/>
      <rect x="29.5" y="12" width="5" height="18" rx="2.5"/>
      <circle cx="32" cy="33" r="7.5"/>
    </g>
    <circle cx="32" cy="33" r="2.6" fill="#FFFFFF"/>
  </g>
</svg>
