<svg width="64" height="64" viewBox="0 0 64 64" fill="none" xmlns="http://www.w3.org/2000/svg" role="img" aria-label="Reliable Shop Systems">
  <rect width="64" height="64" rx="14" fill="#1C4E80"/>
  <g fill="#FFFFFF">
    <circle cx="32" cy="32" r="18"/>
    <rect x="28" y="6" width="8" height="12" rx="2"/>
    <rect x="28" y="6" width="8" height="12" rx="2" transform="rotate(45 32 32)"/>
    <rect x="28" y="6" width="8" height="12" rx="2" transform="rotate(90 32 32)"/>
    <rect x="28" y="6" width="8" height="12" rx="2" transform="rotate(135 32 32)"/>
    <rect x="28" y="6" width="8" height="12" rx="2" transform="rotate(180 32 32)"/>
    <rect x="28" y="6" width="8" height="12" rx="2" transform="rotate(225 32 32)"/>
    <rect x="28" y="6" width="8" height="12" rx="2" transform="rotate(270 32 32)"/>
    <rect x="28" y="6" width="8" height="12" rx="2" transform="rotate(315 32 32)"/>
  </g>
  <circle cx="32" cy="32" r="7.5" fill="#DD4B12"/>
  <circle cx="32" cy="32" r="2.6" fill="#FFFFFF"/>
</svg>
