<svg width="1200" height="630" viewBox="0 0 1200 630" fill="none" xmlns="http://www.w3.org/2000/svg">
  <defs>
    <linearGradient id="bg" x1="0" y1="0" x2="1200" y2="630" gradientUnits="userSpaceOnUse">
      <stop offset="0" stop-color="#102441"/>
      <stop offset="1" stop-color="#0B1626"/>
    </linearGradient>
  </defs>
  <rect width="1200" height="630" fill="url(#bg)"/>

  <!-- faint gear watermark -->
  <g transform="translate(820 120) scale(11)" opacity="0.06">
    <g fill="#FFFFFF">
      <circle cx="32" cy="32" r="21"/>
      <rect x="27.5" y="2.5" width="9" height="13" rx="2.5"/>
      <rect x="27.5" y="2.5" width="9" height="13" rx="2.5" transform="rotate(45 32 32)"/>
      <rect x="27.5" y="2.5" width="9" height="13" rx="2.5" transform="rotate(90 32 32)"/>
      <rect x="27.5" y="2.5" width="9" height="13" rx="2.5" transform="rotate(135 32 32)"/>
      <rect x="27.5" y="2.5" width="9" height="13" rx="2.5" transform="rotate(180 32 32)"/>
      <rect x="27.5" y="2.5" width="9" height="13" rx="2.5" transform="rotate(225 32 32)"/>
      <rect x="27.5" y="2.5" width="9" height="13" rx="2.5" transform="rotate(270 32 32)"/>
      <rect x="27.5" y="2.5" width="9" height="13" rx="2.5" transform="rotate(315 32 32)"/>
    </g>
  </g>

  <!-- logo mark -->
  <g transform="translate(90 84) scale(1.75)">
    <g fill="#FFFFFF">
      <circle cx="32" cy="32" r="21"/>
      <rect x="27.5" y="2.5" width="9" height="13" rx="2.5"/>
      <rect x="27.5" y="2.5" width="9" height="13" rx="2.5" transform="rotate(45 32 32)"/>
      <rect x="27.5" y="2.5" width="9" height="13" rx="2.5" transform="rotate(90 32 32)"/>
      <rect x="27.5" y="2.5" width="9" height="13" rx="2.5" transform="rotate(135 32 32)"/>
      <rect x="27.5" y="2.5" width="9" height="13" rx="2.5" transform="rotate(180 32 32)"/>
      <rect x="27.5" y="2.5" width="9" height="13" rx="2.5" transform="rotate(225 32 32)"/>
      <rect x="27.5" y="2.5" width="9" height="13" rx="2.5" transform="rotate(270 32 32)"/>
      <rect x="27.5" y="2.5" width="9" height="13" rx="2.5" transform="rotate(315 32 32)"/>
    </g>
    <g fill="#DD4B12">
      <rect x="24" y="5" width="16" height="8" rx="3"/>
      <rect x="29.5" y="12" width="5" height="18" rx="2.5"/>
      <circle cx="32" cy="33" r="7.5"/>
    </g>
    <circle cx="32" cy="33" r="2.6" fill="#FFFFFF"/>
  </g>
  <text x="218" y="150" font-family="Space Grotesk" font-weight="700" font-size="34" letter-spacing="3" fill="#9FB3CC">RELIABLE SHOP SYSTEMS</text>

  <text x="88" y="318" font-family="Space Grotesk" font-weight="700" font-size="92" letter-spacing="-2.5" fill="#FFFFFF">Run the whole shop</text>
  <text x="88" y="420" font-family="Space Grotesk" font-weight="700" font-size="92" letter-spacing="-2.5" fill="#FFFFFF">from the <tspan fill="#F2772F">bay.</tspan></text>

  <rect x="92" y="466" width="64" height="6" rx="3" fill="#DD4B12"/>
  <text x="90" y="540" font-family="Inter" font-weight="500" font-size="30" fill="#AFC0D6">Customers · Work orders · Estimates · Invoices · Inventory · Payroll</text>
</svg>
